<svg version="1.1" id="Capa_1" xmlns="http://www.w3.org/2000/svg" xmlns:xlink="http://www.w3.org/1999/xlink" x="0px" y="0px"
	 width="512px" height="512px" viewBox="0 0 512 512" style="enable-background:new 0 0 512 512;" xml:space="preserve">
<g>
	<path d="M426,0H86C38.7,0,0,38.7,0,86v340c0,47.3,38.7,86,86,86h340c47.301,0,86-38.7,86-86V86C512,38.7,473.301,0,426,0z M192,416
		h-64V192h64V416z M160,160c-17.673,0-32-14.327-32-32s14.327-32,32-32s32,14.327,32,32S177.673,160,160,160z M416,416h-64V288
		c0-17.673-14.326-32-32-32s-32,14.327-32,32v128h-64V192h64v39.736C301.199,213.604,321.377,192,344,192c39.766,0,72,35.817,72,80
		V416z"/>
</g>

</svg>
