
<svg version="1.1" xmlns="http://www.w3.org/2000/svg" xmlns:xlink="http://www.w3.org/1999/xlink" x="0px" y="0px"
	 viewBox="0 0 489.308 489.308" style="enable-background:new 0 0 489.308 489.308;" xml:space="preserve">
<g>
	<g>
		<path fill="#353f40" d="M486.8,371.304l-21.8-26.7c-3.5-4.3-5.4-9.7-5.4-15.3v-25.2v-16.1v-46.6l0,0v-129.1c0-23.6-19.2-42.8-42.8-42.8H256.7l0,0
			H72.9c-23.6,0-42.8,19.2-42.8,42.8v175.7v9.4v31.5c0,5.6-1.9,10.9-5.4,15.2l-22.1,27.1c-1.7,2-2.6,4.6-2.6,7.2v12.4
			c0,16,13,29,29,29h431.3c16,0,29-13,29-29v-12.4C489.4,375.904,488.5,373.304,486.8,371.304z M291.2,377.604
			c0,8.1-6.6,14.8-14.8,14.8h-63.2c-8.1,0-14.8-6.6-14.8-14.8v-3.2h92.7v3.2H291.2z M416.9,304.204v27.5H72.7v-32.4v-11.3v-175.8
			l0.1-0.1H276l0,0h140.7c0.1,0,0.1,0.1,0.1,0.1v175.8v11.3v2.9l0,0v2H416.9z"/>
		<path fill="rdba(0,0,0,0.75)" d="M305.6,168.704H197.8c-3.1,0-6,0.9-8.6,2.4l-5.5-19.3c-0.9-3.1-3.8-5.3-7-5.3l0,0h-8.4h-16c-3.1,0-5.5,2.5-5.5,5.5v0.6
			c0,3.1,2.5,5.5,5.5,5.5h21l10.7,37.8l14.7,52.2c-8.4,2.1-14.6,9.7-14.6,18.7c0,10.2,8,18.6,18,19.2c-0.8,2.4-1.2,5-1,7.8
			c0.7,9.2,8.2,16.6,17.5,17.3c11,0.8,20.2-8,20.2-18.8c0-2.2-0.4-4.3-1.1-6.2h22c-0.9,2.6-1.3,5.4-0.9,8.4c1,8.9,8.4,16,17.4,16.6
			c11,0.8,20.2-7.9,20.2-18.8c0-10.5-8.7-18.9-19.2-18.9h-73.7c-3.6,0-6.6-2.8-6.8-6.4c-0.1-3.8,2.9-6.9,6.6-6.9h11.1h59.9h16.9
			c7.5,0,14-5.1,15.8-12.4l14.6-59c1.2-5,0.1-10.2-3.2-14.2C315.4,170.804,310.6,168.704,305.6,168.704z M277.5,286.104
			c3.4,0,6.2,2.8,6.2,6.2c0,3.4-2.8,6.2-6.2,6.2c-3.4,0-6.2-2.8-6.2-6.2C271.3,288.904,274.1,286.104,277.5,286.104z M219.9,286.104
			c3.4,0,6.2,2.8,6.2,6.2c0,3.4-2.8,6.2-6.2,6.2s-6.2-2.8-6.2-6.2C213.7,288.904,216.4,286.104,219.9,286.104z M197.1,196.004
			l-2.8-10c-0.4-1.5,0.2-2.7,0.6-3.2s1.3-1.5,2.9-1.5h11.8l3.2,14.6h-15.7V196.004z M200.6,208.604h14.9l3,13.6h-14.1L200.6,208.604
			z M214.4,247.604c-1.6,0-3.1-1.1-3.5-2.7l-2.9-10.2h13.3l2.8,12.8h-9.7V247.604z M246,247.604h-8.9l-2.8-12.8H246V247.604z
			 M246,222.204h-14.5l-3-13.6H246V222.204z M246,196.004h-20.2l-3.2-14.6h23.5v14.6H246z M268.6,247.604h-10v-12.8h12.7
			L268.6,247.604z M274,222.204h-15.3v-13.6h18.2L274,222.204z M258.6,196.004v-14.6h24l-3.1,14.6H258.6z M294.8,244.804
			c-0.4,1.6-1.9,2.8-3.6,2.8h-9.7l2.7-12.8h13.1L294.8,244.804z M300.4,222.204h-13.5l2.9-13.6h14L300.4,222.204z M309.4,185.904
			l-2.5,10.1h-14.5l3.1-14.6h10.4c1.6,0,2.5,0.9,2.9,1.4C309.2,183.204,309.8,184.404,309.4,185.904z"/>
	</g>
</g>

</svg>
